Coordinates
version=1
nRows=7
nColumns=40
inDegrees=yes

Units are S.I. units (second, meters, Newtons, ...)
Angles are in degrees.

endheader
time	pelvis_tilt	pelvis_list	pelvis_rotation	pelvis_tx	pelvis_ty	pelvis_tz	hip_flexion_r	hip_adduction_r	hip_rotation_r	knee_angle_r	knee_angle_r_beta	ankle_angle_r	subtalar_angle_r	mtp_angle_r	hip_flexion_l	hip_adduction_l	hip_rotation_l	knee_angle_l	knee_angle_l_beta	ankle_angle_l	subtalar_angle_l	mtp_angle_l	lumbar_extension	lumbar_bending	lumbar_rotation	arm_flex_r	arm_add_r	arm_rot_r	elbow_flex_r	pro_sup_r	wrist_flex_r	wrist_dev_r	arm_flex_l	arm_add_l	arm_rot_l	elbow_flex_l	pro_sup_l	wrist_flex_l	wrist_dev_l
     19.22000000	     -2.89211015	     -5.02505970	     -3.79594179	      1.06470994	      0.92517144	      0.47904744	     17.88844590	      2.16576905	    -10.26745023	     21.37627753	     21.37627753	      7.83581921	     -2.40341677	     -5.02753931	     11.13913265	    -12.14079546	     -5.39073496	     45.21580267	     45.21580267	     11.57113226	    -17.29687166	     -4.94737536	    -10.37565925	      7.19219270	      2.21911805	     12.75258039	    -13.50414250	     -4.68552849	     38.11659694	     45.55330204	      0.00000000	      0.00000000	      4.32168874	    -13.09198876	     -1.49949762	     70.14200703	     47.49834541	      0.00000000	      0.00000000
     19.23371429	     -2.81655773	     -5.11358268	     -3.26020284	      1.06461789	      0.92530141	      0.48143502	     17.41507874	      2.28463958	    -10.75423945	     21.41996009	     21.41996009	      8.30122391	     -2.42757977	     -5.11369005	     13.27852759	    -12.66806318	     -4.43869599	     49.11998581	     49.11998581	      9.83881789	    -17.71071967	     -4.56087387	    -10.39089308	      7.28886532	      2.18988068	     13.32295386	    -13.74805360	     -4.41394028	     38.75339163	     45.52125374	      0.00000000	      0.00000000	      3.98364025	    -12.93417197	     -1.69590036	     68.21872151	     47.47612847	      0.00000000	      0.00000000
     19.24742857	     -2.62750123	     -5.25485655	     -2.71769848	      1.06438103	      0.92551058	      0.48370264	     16.81646952	      2.46350573	    -11.22850260	     21.46269531	     21.46269531	      8.73070717	     -2.47848796	     -5.22123738	     15.27546389	    -13.16472986	     -3.45853275	     52.74605293	     52.74605293	      8.13630634	    -18.03957918	     -4.03078384	    -10.59919438	      7.45039941	      2.26878188	     13.99180342	    -14.06130644	     -4.30296043	     39.23122971	     45.50320402	      0.00000000	      0.00000000	      3.60394960	    -12.84226310	     -1.79371514	     66.85837338	     47.45721671	      0.00000000	      0.00000000
     19.26114286	     -2.63288016	     -5.18603336	     -2.19009815	      1.06389636	      0.92557636	      0.48562064	     16.46536571	      2.40059125	    -11.69737687	     21.53483468	     21.53483468	      9.22521177	     -2.38400457	     -5.16962849	     17.58143215	    -13.21840485	     -2.35256197	     56.30324516	     56.30324516	      8.03782541	    -17.80766067	      0.66317351	    -10.46162923	      7.41960086	      2.70685035	     13.93085547	    -14.83341893	     -2.95961663	     40.70820049	     45.38954352	      0.00000000	      0.00000000	      4.61461953	    -11.96274671	     -2.59425346	     61.57273229	     47.42501948	      0.00000000	      0.00000000
     19.27485714	     -2.56503717	     -5.19205563	     -1.65075262	      1.06325993	      0.92565350	      0.48753189	     16.04655139	      2.44006479	    -12.10146478	     21.60360504	     21.60360504	      9.63418075	     -2.48157437	     -5.16785687	     19.64958477	    -13.36913701	     -1.43779424	     59.22387172	     59.22387172	      7.41579009	    -17.78721374	      3.27326037	    -10.54210971	      7.40854795	      2.67216205	     14.41945487	    -15.21647196	     -2.37001336	     41.87168200	     45.33275593	      0.00000000	      0.00000000	      4.46446996	    -11.91355193	     -2.68458917	     59.01938130	     47.37672698	      0.00000000	      0.00000000
     19.28857143	     -2.46599003	     -5.26952355	     -1.12618416	      1.06257250	      0.92581872	      0.48940667	     15.52538466	      2.59154252	    -12.47975334	     21.52743185	     21.52743185	      9.95778260	     -2.60113760	     -5.21494102	     21.48241145	    -13.64577294	     -0.74744580	     61.42828690	     61.42828690	      6.30570176	    -17.90817630	      3.68658807	    -10.72923389	      7.41869556	      2.80838313	     15.10993760	    -15.59467200	     -2.39840446	     42.25906919	     45.32624020	      0.00000000	      0.00000000	      3.86577126	    -11.97360768	     -2.70798228	     58.09945353	     47.35846549	      0.00000000	      0.00000000
     19.30228571	     -2.49722781	     -5.17744287	     -0.59559642	      1.06173343	      0.92602771	      0.49101671	     15.15128336	      2.56290851	    -12.78181068	     21.43091456	     21.43091456	     10.26542617	     -2.76688603	     -5.12570079	     23.43931045	    -13.60639505	     -0.10108684	     63.24553488	     63.24553488	      6.62795264	    -17.76679300	      7.12757214	    -10.66200296	      7.30032834	      2.98996705	     15.34143179	    -16.07945787	     -1.49744674	     43.39856545	     45.25802823	      0.00000000	      0.00000000	      4.64852325	    -11.44363716	     -3.38293336	     52.99930929	     47.32880768	      0.00000000	      0.00000000
